<?xml version="1.0" encoding="utf-8"?>
<!-- Generator: Adobe Illustrator 15.1.0, SVG Export Plug-In . SVG Version: 6.00 Build 0)  -->
<!DOCTYPE svg PUBLIC "-//W3C//DTD SVG 1.1//EN" "http://www.w3.org/Graphics/SVG/1.1/DTD/svg11.dtd">
<svg version="1.1" id="Layer_1" xmlns="http://www.w3.org/2000/svg" xmlns:xlink="http://www.w3.org/1999/xlink" x="0px" y="0px"
	 width="432px" height="72px" viewBox="0 0 432 72" enable-background="new 0 0 432 72" xml:space="preserve">
<g id="D2-FXCi_1_">
	<polygon fill="#426688" points="77.935,31.109 91.361,11.115 81.276,11.115 72.774,24.483 64.566,11.115 59.275,11.115 
		53.896,11.115 29.841,11.115 29.841,52.979 39.047,52.979 39.047,35.683 56.578,35.683 56.578,28.529 39.047,28.529 39.047,18.854 
		59.131,18.854 67.38,31.051 52.722,52.979 63.101,52.979 72.423,38.497 81.569,52.979 92.534,52.979 	"/>
	<path fill="#426688" d="M118.007,25.188c-0.586-4.163-4.573-7.329-9.146-7.329c-8.268,0-11.375,7.035-11.375,14.365
		c0,6.977,3.107,14.014,11.375,14.014c5.629,0,8.795-3.871,9.499-9.382h8.911c-0.938,10.438-8.149,17.121-18.41,17.121
		c-12.958,0-20.58-9.675-20.58-21.753c0-12.431,7.622-22.105,20.58-22.105c9.205,0,16.945,5.395,18.06,15.069H118.007z"/>
	<path fill="#426688" d="M130.134,26.921h7.51v25.815h-7.51V26.921z"/>
	<path fill="#426688" d="M141.019,26.921h7.141v3.596h0.158c1.904-2.896,5.183-4.294,8.355-4.294c7.985,0,9.996,4.243,9.996,10.635
		v15.879h-7.51v-14.58c0-4.245-1.324-6.342-4.812-6.342c-4.073,0-5.816,2.147-5.816,7.391v13.531h-7.512V26.921z"/>
	<path fill="#426688" d="M180.651,26.922h5.499v4.743h-5.499v12.782c0,2.396,0.635,2.996,3.173,2.996
		c0.794,0,1.533-0.049,2.326-0.199v5.543c-1.269,0.199-2.908,0.248-4.39,0.248c-4.601,0-8.619-0.998-8.619-6.141V31.665h-4.549
		v-4.743h4.549v-7.74h7.51V26.922z"/>
	<path fill="#426688" d="M194.945,41.552c0.212,4.493,2.538,6.542,6.716,6.542c3.015,0,5.447-1.748,5.924-3.347h6.61
		c-2.116,6.091-6.61,8.688-12.798,8.688c-8.619,0-13.962-5.592-13.962-13.581c0-7.74,5.659-13.632,13.962-13.632
		c9.307,0,13.802,7.39,13.273,15.329H194.945z M207.161,37.058c-0.687-3.595-2.326-5.492-5.977-5.492
		c-4.76,0-6.134,3.495-6.239,5.492H207.161z"/>
	<path fill="#426688" d="M217.244,17.086h7.51v35.65h-7.51V17.086z"/>
	<path fill="#426688" d="M228.602,17.086h7.51v35.65h-7.51V17.086z"/>
	<path fill="#426688" d="M239.345,26.921h7.51v25.815h-7.51V26.921z"/>
	<path fill="#426688" d="M275.418,55.584c-0.299,1.338-0.939,2.586-1.922,3.74c-0.983,1.154-2.405,2.133-4.265,2.936
		c-1.861,0.803-4.353,1.205-7.477,1.205c-1.334,0-2.694-0.16-4.08-0.477c-1.387-0.318-2.65-0.812-3.791-1.48
		c-1.141-0.67-2.089-1.531-2.843-2.586c-0.756-1.053-1.185-2.316-1.29-3.789h7.424c0.35,1.338,1.034,2.266,2.053,2.785
		c1.018,0.52,2.193,0.779,3.527,0.779c2.106,0,3.642-0.604,4.607-1.809c0.965-1.203,1.43-2.727,1.395-4.566v-3.414h-0.104
		c-0.808,1.373-1.957,2.385-3.448,3.037c-1.493,0.652-3.063,0.979-4.713,0.979c-2.036,0-3.791-0.342-5.265-1.027
		c-1.475-0.686-2.686-1.623-3.633-2.812c-0.948-1.186-1.642-2.576-2.08-4.165s-0.658-3.271-0.658-5.045
		c0-1.673,0.255-3.287,0.764-4.843c0.509-1.557,1.255-2.928,2.237-4.116c0.982-1.188,2.203-2.133,3.659-2.836
		c1.456-0.702,3.133-1.054,5.028-1.054c1.79,0,3.36,0.318,4.713,0.954c1.35,0.636,2.482,1.706,3.396,3.212h0.104v-3.463h7.108
		v24.293C275.865,53.059,275.716,54.246,275.418,55.584z M265.177,46.951c0.808-0.401,1.475-0.937,2.001-1.606
		c0.526-0.669,0.922-1.43,1.185-2.283c0.264-0.854,0.395-1.748,0.395-2.686c0-1.07-0.104-2.083-0.315-3.036
		c-0.21-0.954-0.562-1.799-1.053-2.535c-0.492-0.735-1.142-1.321-1.948-1.756c-0.808-0.435-1.825-0.653-3.054-0.653
		c-1.053,0-1.957,0.201-2.712,0.603s-1.387,0.946-1.895,1.631c-0.51,0.687-0.878,1.474-1.105,2.359
		c-0.229,0.887-0.343,1.815-0.343,2.786c0,0.937,0.097,1.865,0.29,2.785c0.191,0.921,0.525,1.749,1,2.484
		c0.474,0.736,1.097,1.339,1.869,1.807c0.771,0.47,1.737,0.704,2.896,0.704C263.439,47.555,264.369,47.354,265.177,46.951z"/>
	<path fill="#426688" d="M285.429,41.552c0.211,4.493,2.538,6.542,6.716,6.542c3.014,0,5.447-1.748,5.923-3.347h6.611
		c-2.117,6.091-6.611,8.688-12.799,8.688c-8.619,0-13.961-5.592-13.961-13.581c0-7.74,5.658-13.632,13.961-13.632
		c9.308,0,13.802,7.39,13.273,15.329H285.429z M297.644,37.058c-0.687-3.595-2.326-5.492-5.977-5.492
		c-4.76,0-6.134,3.495-6.238,5.492H297.644z"/>
	<path fill="#426688" d="M306.791,26.921h7.141v3.596h0.157c1.905-2.896,5.184-4.294,8.356-4.294c7.985,0,9.995,4.243,9.995,10.635
		v15.879h-7.51v-14.58c0-4.245-1.323-6.342-4.812-6.342c-4.072,0-5.816,2.147-5.816,7.391v13.531h-7.511V26.921z"/>
	<path fill="#426688" d="M348.288,31.396c-1.193,0-2.193,0.26-3.001,0.778c-0.808,0.52-1.466,1.188-1.975,2.008
		c-0.509,0.82-0.868,1.724-1.079,2.71c-0.211,0.987-0.316,1.966-0.316,2.937c0,0.937,0.105,1.891,0.316,2.86
		c0.211,0.972,0.553,1.85,1.026,2.636c0.475,0.786,1.114,1.43,1.922,1.932s1.79,0.754,2.948,0.754c1.791,0,3.168-0.477,4.133-1.432
		c0.966-0.953,1.571-2.233,1.816-3.839h7.214c-0.492,3.446-1.896,6.073-4.212,7.88s-5.283,2.711-8.898,2.711
		c-2.036,0-3.904-0.326-5.607-0.979c-1.702-0.652-3.15-1.564-4.343-2.736c-1.194-1.17-2.124-2.566-2.791-4.191
		c-0.667-1.622-1-3.404-1-5.345c0-2.008,0.307-3.873,0.921-5.597c0.614-1.723,1.518-3.212,2.712-4.467
		c1.192-1.255,2.649-2.233,4.37-2.937c1.719-0.702,3.686-1.054,5.896-1.054c1.614,0,3.167,0.201,4.66,0.603
		c1.491,0.401,2.824,1.013,4.001,1.832c1.175,0.82,2.132,1.841,2.869,3.062c0.737,1.222,1.158,2.669,1.264,4.342h-7.318
		C353.324,32.885,351.481,31.396,348.288,31.396z"/>
	<path fill="#426688" d="M370.074,41.552c0.213,4.493,2.539,6.542,6.717,6.542c3.014,0,5.447-1.748,5.922-3.347h6.611
		c-2.117,6.091-6.611,8.688-12.797,8.688c-8.621,0-13.963-5.592-13.963-13.581c0-7.74,5.658-13.632,13.963-13.632
		c9.307,0,13.801,7.39,13.273,15.329H370.074z M382.291,37.058c-0.688-3.595-2.328-5.492-5.977-5.492
		c-4.76,0-6.135,3.495-6.24,5.492H382.291z"/>
	<path fill="#C7C9C7" d="M221,3.1c-2.105,0-3.812,1.707-3.812,3.811c0,0.106,0.023,0.207,0.032,0.312l-15.173,6.99
		c-0.699-0.842-1.739-1.39-2.919-1.39c-1.307,0-2.457,0.659-3.144,1.66l-15.133-2.212c-0.46-1.588-1.908-2.756-3.644-2.756
		c-2.083,0-3.768,1.671-3.805,3.742l-15.236,4.113c-0.698-0.814-1.723-1.342-2.88-1.342c-1.247,0-2.345,0.608-3.039,1.535
		l-17.744-4.719l-0.768,2.886l17.803,4.733c0.3,1.806,1.857,3.186,3.748,3.186c1.974,0,3.576-1.506,3.771-3.427l15.482-4.181
		c0.688,0.675,1.627,1.093,2.667,1.093c1.404,0,2.618-0.769,3.278-1.9l14.912,2.18c0.36,1.729,1.892,3.029,3.729,3.029
		c1.94,0,3.524-1.457,3.762-3.333l15.729-7.246c0.653,0.527,1.475,0.855,2.38,0.855c2.104,0,3.81-1.706,3.81-3.81
		S223.104,3.1,221,3.1z"/>
	<circle fill="#ADD149" cx="133.889" cy="14.117" r="4.603"/>
	<circle fill="#ADD149" cx="243.346" cy="14.117" r="4.603"/>
</g>
<g>
	<path fill="#426688" d="M393.04,22.252v4.773h-0.602v-4.773H390.7v-0.559h4.062v0.559H393.04z"/>
	<path fill="#426688" d="M401.149,21.693v5.332h-0.602V22.76v-0.32l0.004-0.16l0.004-0.16h-0.016l-0.047,0.125
		c-0.023,0.062-0.039,0.104-0.047,0.121l-0.102,0.25l-1.816,4.41h-0.602l-1.82-4.359l-0.105-0.246l-0.047-0.125
		c-0.013-0.028-0.028-0.068-0.047-0.121h-0.016l0.004,0.145l0.004,0.148v0.293v4.266h-0.602v-5.332h1.043l1.422,3.449l0.227,0.559
		l0.113,0.277l0.109,0.277h0.016l0.109-0.277c0.055-0.133,0.091-0.225,0.109-0.277l0.23-0.555l1.414-3.453H401.149z"/>
</g>
</svg>
